<svg width="160" height="52" viewBox="0 0 160 52" fill="none" xmlns="http://www.w3.org/2000/svg">
<path d="M13.76 27.52V25.28H22.656V25.792C22.656 28.4373 21.9733 30.688 20.608 32.544C18.7093 35.104 16.064 36.384 12.672 36.384C9.51467 36.384 6.88 35.328 4.768 33.216C2.656 31.0827 1.6 28.4587 1.6 25.344C1.6 22.2293 2.656 19.616 4.768 17.504C6.90133 15.3707 9.55733 14.304 12.736 14.304C15.2533 14.304 17.4293 15.008 19.264 16.416C20.2027 17.1413 21.024 17.984 21.728 18.944L19.968 20.544C19.3493 19.6693 18.6773 18.9333 17.952 18.336C16.48 17.1413 14.752 16.544 12.768 16.544C10.2293 16.544 8.13867 17.3867 6.496 19.072C4.85333 20.7573 4.032 22.8587 4.032 25.376C4.032 27.2107 4.48 28.8213 5.376 30.208C6.272 31.5733 7.36 32.576 8.64 33.216C9.94133 33.8347 11.296 34.144 12.704 34.144C14.112 34.144 15.392 33.824 16.544 33.184C17.7173 32.5227 18.6133 31.648 19.232 30.56C19.7653 29.6427 20.0533 28.6293 20.096 27.52H13.76ZM26.426 12.672H28.73V36H26.426V12.672ZM43.2583 24.608V22.72H45.5623V36H43.2583V34.144C42.1063 35.6373 40.5916 36.384 38.7143 36.384C36.9223 36.384 35.3969 35.7653 34.1383 34.528C32.8796 33.2907 32.2503 31.5627 32.2503 29.344C32.2503 27.168 32.8689 25.472 34.1063 24.256C35.3649 23.0187 36.9009 22.4 38.7143 22.4C40.6343 22.4 42.1489 23.136 43.2583 24.608ZM38.9703 24.448C37.7543 24.448 36.7196 24.8853 35.8663 25.76C35.0343 26.6133 34.6183 27.808 34.6183 29.344C34.6183 30.816 35.0023 32.0213 35.7703 32.96C36.5596 33.8773 37.6263 34.336 38.9703 34.336C40.3143 34.336 41.3809 33.856 42.1703 32.896C42.9809 31.936 43.3863 30.7627 43.3863 29.376C43.3863 27.7973 42.9383 26.5813 42.0423 25.728C41.1463 24.8747 40.1223 24.448 38.9703 24.448ZM57.286 24.8L55.398 25.792C55.0353 24.896 54.4167 24.448 53.542 24.448C53.094 24.448 52.71 24.576 52.39 24.832C52.0913 25.088 51.942 25.4613 51.942 25.952C51.942 26.4 52.0807 26.7413 52.358 26.976C52.6567 27.1893 53.2327 27.4773 54.086 27.84C55.7713 28.544 56.8807 29.2267 57.414 29.888C57.8833 30.464 58.118 31.1787 58.118 32.032C58.118 33.376 57.6807 34.4427 56.806 35.232C55.9527 36 54.8647 36.384 53.542 36.384C53.286 36.384 53.0087 36.352 52.71 36.288C52.4113 36.2453 51.9953 36.1387 51.462 35.968C50.95 35.776 50.4593 35.424 49.99 34.912C49.5207 34.4 49.158 33.76 48.902 32.992L50.886 32.16C51.4193 33.6107 52.3153 34.336 53.574 34.336C54.278 34.336 54.8113 34.1227 55.174 33.696C55.558 33.2693 55.75 32.7787 55.75 32.224C55.75 31.9253 55.6967 31.6693 55.59 31.456C55.5047 31.2213 55.3447 31.0187 55.11 30.848C54.8967 30.6773 54.6833 30.5387 54.47 30.432C54.278 30.3253 53.99 30.1867 53.606 30.016C51.8993 29.2693 50.822 28.6187 50.374 28.064C49.9687 27.552 49.766 26.9013 49.766 26.112C49.766 24.96 50.118 24.0533 50.822 23.392C51.5473 22.7307 52.486 22.4 53.638 22.4C55.3233 22.4 56.5393 23.2 57.286 24.8ZM68.536 24.8L66.648 25.792C66.2853 24.896 65.6667 24.448 64.792 24.448C64.344 24.448 63.96 24.576 63.64 24.832C63.3413 25.088 63.192 25.4613 63.192 25.952C63.192 26.4 63.3307 26.7413 63.608 26.976C63.9067 27.1893 64.4827 27.4773 65.336 27.84C67.0213 28.544 68.1307 29.2267 68.664 29.888C69.1333 30.464 69.368 31.1787 69.368 32.032C69.368 33.376 68.9307 34.4427 68.056 35.232C67.2027 36 66.1147 36.384 64.792 36.384C64.536 36.384 64.2587 36.352 63.96 36.288C63.6613 36.2453 63.2453 36.1387 62.712 35.968C62.2 35.776 61.7093 35.424 61.24 34.912C60.7707 34.4 60.408 33.76 60.152 32.992L62.136 32.16C62.6693 33.6107 63.5653 34.336 64.824 34.336C65.528 34.336 66.0613 34.1227 66.424 33.696C66.808 33.2693 67 32.7787 67 32.224C67 31.9253 66.9467 31.6693 66.84 31.456C66.7547 31.2213 66.5947 31.0187 66.36 30.848C66.1467 30.6773 65.9333 30.5387 65.72 30.432C65.528 30.3253 65.24 30.1867 64.856 30.016C63.1493 29.2693 62.072 28.6187 61.624 28.064C61.2187 27.552 61.016 26.9013 61.016 26.112C61.016 24.96 61.368 24.0533 62.072 23.392C62.7973 22.7307 63.736 22.4 64.888 22.4C66.5733 22.4 67.7893 23.2 68.536 24.8ZM84.01 27.52V25.28H92.906V25.792C92.906 28.4373 92.2233 30.688 90.858 32.544C88.9593 35.104 86.314 36.384 82.922 36.384C79.7647 36.384 77.13 35.328 75.018 33.216C72.906 31.0827 71.85 28.4587 71.85 25.344C71.85 22.2293 72.906 19.616 75.018 17.504C77.1513 15.3707 79.8073 14.304 82.986 14.304C85.5033 14.304 87.6793 15.008 89.514 16.416C90.4527 17.1413 91.274 17.984 91.978 18.944L90.218 20.544C89.5993 19.6693 88.9273 18.9333 88.202 18.336C86.73 17.1413 85.002 16.544 83.018 16.544C80.4793 16.544 78.3887 17.3867 76.746 19.072C75.1033 20.7573 74.282 22.8587 74.282 25.376C74.282 27.2107 74.73 28.8213 75.626 30.208C76.522 31.5733 77.61 32.576 78.89 33.216C80.1913 33.8347 81.546 34.144 82.954 34.144C84.362 34.144 85.642 33.824 86.794 33.184C87.9673 32.5227 88.8633 31.648 89.482 30.56C90.0153 29.6427 90.3033 28.6293 90.346 27.52H84.01ZM107.908 34.4C106.585 35.7227 104.911 36.384 102.884 36.384C100.857 36.384 99.172 35.7227 97.828 34.4C96.5053 33.0773 95.844 31.4133 95.844 29.408C95.844 27.3813 96.5053 25.7067 97.828 24.384C99.172 23.0613 100.857 22.4 102.884 22.4C104.911 22.4 106.585 23.0613 107.908 24.384C109.252 25.7067 109.924 27.3813 109.924 29.408C109.924 31.4133 109.252 33.0773 107.908 34.4ZM106.18 25.76C105.284 24.8853 104.185 24.448 102.884 24.448C101.583 24.448 100.473 24.896 99.556 25.792C98.66 26.6667 98.212 27.872 98.212 29.408C98.212 30.944 98.6707 32.1493 99.588 33.024C100.505 33.8987 101.604 34.336 102.884 34.336C104.164 34.336 105.263 33.8987 106.18 33.024C107.097 32.1493 107.556 30.944 107.556 29.408C107.556 27.8507 107.097 26.6347 106.18 25.76Z" fill="#304352"/>
<path d="M93.86 45.44V41.71H94.58V49H93.86V48.42C93.5 48.8867 93.0267 49.12 92.44 49.12C91.88 49.12 91.4033 48.9267 91.01 48.54C90.6167 48.1533 90.42 47.6133 90.42 46.92C90.42 46.24 90.6133 45.71 91 45.33C91.3933 44.9433 91.8733 44.75 92.44 44.75C93.04 44.75 93.5133 44.98 93.86 45.44ZM92.52 45.39C92.14 45.39 91.8167 45.5267 91.55 45.8C91.29 46.0667 91.16 46.44 91.16 46.92C91.16 47.38 91.28 47.7567 91.52 48.05C91.7667 48.3367 92.1 48.48 92.52 48.48C92.94 48.48 93.2733 48.33 93.52 48.03C93.7733 47.73 93.9 47.3633 93.9 46.93C93.9 46.4367 93.76 46.0567 93.48 45.79C93.2 45.5233 92.88 45.39 92.52 45.39ZM99.0237 47.61L99.6237 47.94C99.4837 48.2067 99.3137 48.43 99.1137 48.61C98.7337 48.95 98.2737 49.12 97.7337 49.12C97.1737 49.12 96.6903 48.94 96.2837 48.58C95.8837 48.2133 95.6837 47.67 95.6837 46.95C95.6837 46.3167 95.8637 45.7933 96.2237 45.38C96.5903 44.96 97.0803 44.75 97.6937 44.75C98.387 44.75 98.9103 45.0033 99.2637 45.51C99.5437 45.91 99.6737 46.43 99.6537 47.07H96.4237C96.4303 47.49 96.5603 47.83 96.8137 48.09C97.067 48.35 97.377 48.48 97.7437 48.48C98.0703 48.48 98.3537 48.38 98.5937 48.18C98.7803 48.02 98.9237 47.83 99.0237 47.61ZM96.4737 46.47H98.9137C98.8537 46.1433 98.7103 45.8833 98.4837 45.69C98.2637 45.49 98.0003 45.39 97.6937 45.39C97.3937 45.39 97.127 45.4933 96.8937 45.7C96.667 45.9 96.527 46.1567 96.4737 46.47ZM103.938 45.44V44.85H104.658V49H103.938V48.42C103.578 48.8867 103.105 49.12 102.518 49.12C101.958 49.12 101.481 48.9267 101.088 48.54C100.695 48.1533 100.498 47.6133 100.498 46.92C100.498 46.24 100.691 45.71 101.078 45.33C101.471 44.9433 101.951 44.75 102.518 44.75C103.118 44.75 103.591 44.98 103.938 45.44ZM102.598 45.39C102.218 45.39 101.895 45.5267 101.628 45.8C101.368 46.0667 101.238 46.44 101.238 46.92C101.238 47.38 101.358 47.7567 101.598 48.05C101.845 48.3367 102.178 48.48 102.598 48.48C103.018 48.48 103.351 48.33 103.598 48.03C103.851 47.73 103.978 47.3633 103.978 46.93C103.978 46.4367 103.838 46.0567 103.558 45.79C103.278 45.5233 102.958 45.39 102.598 45.39ZM107.782 45.51H106.762V49H106.042V45.51H105.642V44.85H106.042V43.04C106.042 42.4867 106.175 42.0967 106.442 41.87C106.655 41.69 106.932 41.6 107.272 41.6C107.452 41.6 107.622 41.63 107.782 41.69V42.39C107.635 42.33 107.478 42.3 107.312 42.3C107.092 42.3 106.938 42.3733 106.852 42.52C106.792 42.62 106.762 42.82 106.762 43.12V44.85H107.782V45.51Z" fill="#304352"/>
<path d="M118 50L133 25.4667L118 2" stroke="#304352" stroke-width="6"/>
<path d="M133.25 45L145 25.6039L130 2" stroke="#304352" stroke-width="6"/>
<path d="M147 40L156 25.4667L141 2" stroke="#304352" stroke-width="6"/>
</svg>
